<svg width="53" height="48" viewBox="0 0 53 48" fill="none" xmlns="http://www.w3.org/2000/svg">
<path d="M19.2766 9.80853e-05C14.7564 -0.0238182 10.3558 4.32894 12.3648 9.73401H4.78327C3.51467 9.73401 2.29803 10.238 1.40099 11.135C0.503951 12.032 0 13.2487 0 14.5173V19.3005C0 19.9348 0.251975 20.5431 0.700494 20.9916C1.14901 21.4402 1.75734 21.6921 2.39164 21.6921H23.9164V14.5173H28.6996V21.6921H50.2244C50.8587 21.6921 51.467 21.4402 51.9155 20.9916C52.364 20.5431 52.616 19.9348 52.616 19.3005V14.5173C52.616 13.2487 52.1121 12.032 51.215 11.135C50.318 10.238 49.1013 9.73401 47.8327 9.73401H40.2512C43.0495 1.9134 32.5263 -3.61125 27.6712 3.13313L26.308 4.95076L24.9448 3.08529C23.438 0.956748 21.3573 0.0240143 19.2766 9.80853e-05ZM19.1331 4.95076C21.2617 4.95076 22.3379 7.53372 20.8312 9.04044C19.3244 10.5472 16.7415 9.47093 16.7415 7.34239C16.7415 6.70809 16.9934 6.09977 17.442 5.65125C17.8905 5.20274 18.4988 4.95076 19.1331 4.95076ZM33.4829 4.95076C35.6115 4.95076 36.6877 7.53372 35.181 9.04044C33.6742 10.5472 31.0913 9.47093 31.0913 7.34239C31.0913 6.70809 31.3433 6.09977 31.7918 5.65125C32.2403 5.20274 32.8486 4.95076 33.4829 4.95076ZM2.39164 24.0838V43.2168C2.39164 44.4854 2.89559 45.702 3.79262 46.599C4.68966 47.4961 5.90631 48 7.17491 48H45.4411C46.7097 48 47.9263 47.4961 48.8234 46.599C49.7204 45.702 50.2244 44.4854 50.2244 43.2168V24.0838H28.6996V43.2168H23.9164V24.0838H2.39164Z" fill="white"/>
</svg>
