<svg width="68" height="71" viewBox="0 0 68 71" fill="none" xmlns="http://www.w3.org/2000/svg">
<rect x="0.331328" y="0.331328" width="67.3373" height="70.0039" rx="14.9098" fill="#00953B" stroke="#00953B" stroke-width="0.662657"/>
<path fill-rule="evenodd" clip-rule="evenodd" d="M34.0375 44.477C34.4544 44.477 34.8542 44.3114 35.149 44.0166C35.4438 43.7218 35.6094 43.3219 35.6094 42.905V19.9063L39.1306 24.0164C39.4019 24.3333 39.7879 24.5294 40.2038 24.5616C40.6196 24.5938 41.0313 24.4596 41.3481 24.1883C41.665 23.917 41.8611 23.531 41.8933 23.1151C41.9255 22.6993 41.7912 22.2876 41.52 21.9708L35.2322 14.635C35.0846 14.4624 34.9014 14.3239 34.6951 14.2289C34.4889 14.1339 34.2645 14.0847 34.0375 14.0847C33.8104 14.0847 33.586 14.1339 33.3798 14.2289C33.1736 14.3239 32.9904 14.4624 32.8428 14.635L26.555 21.9708C26.4207 22.1277 26.3186 22.3095 26.2545 22.5058C26.1905 22.7022 26.1657 22.9092 26.1817 23.1151C26.1976 23.321 26.254 23.5218 26.3475 23.7059C26.4411 23.8901 26.57 24.054 26.7268 24.1883C26.8837 24.3226 27.0655 24.4247 27.2619 24.4888C27.4582 24.5528 27.6653 24.5776 27.8712 24.5616C28.0771 24.5457 28.2779 24.4893 28.462 24.3958C28.6461 24.3022 28.81 24.1733 28.9444 24.0164L32.4655 19.9084V42.905C32.4655 43.7727 33.1698 44.477 34.0375 44.477Z" fill="white"/>
<path d="M42.4218 30.3308C40.9504 30.3308 40.2148 30.3308 39.6845 30.6851C39.4565 30.8376 39.2607 31.0334 39.1081 31.2614C38.7539 31.7917 38.7539 32.5274 38.7539 33.9987V42.9065C38.7539 44.1572 38.257 45.3567 37.3726 46.2411C36.4883 47.1255 35.2888 47.6223 34.038 47.6223C32.7873 47.6223 31.5878 47.1255 30.7034 46.2411C29.819 45.3567 29.3222 44.1572 29.3222 42.9065V33.9987C29.3222 32.5274 29.3222 31.7917 28.968 31.2614C28.8154 31.0334 28.6196 30.8376 28.3916 30.6851C27.8613 30.3308 27.1256 30.3308 25.6543 30.3308C19.727 30.3308 16.7612 30.3308 14.921 32.1732C13.0787 34.0134 13.0787 36.975 13.0787 42.9044V45.0003C13.0787 50.9318 13.0787 53.8934 14.921 55.7357C16.7612 57.578 19.727 57.578 25.6543 57.578H42.4218C48.3491 57.578 51.3148 57.578 53.1551 55.7357C54.9953 53.8934 54.9974 50.9297 54.9974 45.0024V42.9065C54.9974 36.9771 54.9974 34.0134 53.1551 32.1732C51.3148 30.3308 48.3491 30.3308 42.4218 30.3308Z" fill="white"/>
</svg>
