<svg width="68" height="71" viewBox="0 0 68 71" fill="none" xmlns="http://www.w3.org/2000/svg">
<rect x="0.331328" y="0.331328" width="66.9283" height="69.579" rx="14.9098" fill="#00953B" stroke="#00953B" stroke-width="0.662657"/>
<path fill-rule="evenodd" clip-rule="evenodd" d="M33.8328 44.2095C34.2472 44.2095 34.6446 44.0449 34.9376 43.7518C35.2307 43.4588 35.3953 43.0614 35.3953 42.647V19.7866L38.8953 23.872C39.1649 24.1869 39.5486 24.3819 39.962 24.4139C40.3754 24.4459 40.7845 24.3125 41.0995 24.0428C41.4144 23.7732 41.6093 23.3895 41.6414 22.9761C41.6734 22.5628 41.5399 22.1536 41.2703 21.8387L35.0203 14.547C34.8736 14.3755 34.6915 14.2377 34.4865 14.1433C34.2815 14.0489 34.0585 14 33.8328 14C33.6071 14 33.3841 14.0489 33.1791 14.1433C32.9741 14.2377 32.792 14.3755 32.6453 14.547L26.3953 21.8387C26.2618 21.9946 26.1603 22.1753 26.0966 22.3705C26.0329 22.5657 26.0083 22.7715 26.0242 22.9761C26.0401 23.1808 26.0961 23.3803 26.1891 23.5634C26.2821 23.7464 26.4102 23.9093 26.5661 24.0428C26.7221 24.1763 26.9028 24.2778 27.0979 24.3415C27.2931 24.4052 27.4989 24.4298 27.7036 24.4139C27.9083 24.398 28.1078 24.342 28.2908 24.249C28.4739 24.1561 28.6368 24.0279 28.7703 23.872L32.2703 19.7887V42.647C32.2703 43.5095 32.9703 44.2095 33.8328 44.2095Z" fill="white"/>
<path d="M42.1667 30.1484C40.7042 30.1484 39.9729 30.1484 39.4458 30.5005C39.2192 30.6522 39.0246 30.8468 38.8729 31.0734C38.5208 31.6005 38.5208 32.3318 38.5208 33.7943V42.6484C38.5208 43.8916 38.027 45.0839 37.1479 45.963C36.2688 46.8421 35.0765 47.3359 33.8333 47.3359C32.5901 47.3359 31.3978 46.8421 30.5188 45.963C29.6397 45.0839 29.1458 43.8916 29.1458 42.6484V33.7943C29.1458 32.3318 29.1458 31.6005 28.7938 31.0734C28.6421 30.8468 28.4475 30.6522 28.2208 30.5005C27.6938 30.1484 26.9625 30.1484 25.5 30.1484C19.6083 30.1484 16.6604 30.1484 14.8313 31.9797C13 33.8089 13 36.7526 13 42.6464V44.7297C13 50.6255 13 53.5693 14.8313 55.4005C16.6604 57.2318 19.6083 57.2318 25.5 57.2318H42.1667C48.0583 57.2318 51.0063 57.2318 52.8354 55.4005C54.6646 53.5693 54.6667 50.6234 54.6667 44.7318V42.6484C54.6667 36.7547 54.6667 33.8089 52.8354 31.9797C51.0063 30.1484 48.0583 30.1484 42.1667 30.1484Z" fill="white"/>
</svg>
