<svg width="48" height="49" viewBox="0 0 48 49" fill="none" xmlns="http://www.w3.org/2000/svg">
<path d="M1.14853 47.8516L11.5256 18.2588L31.0572 38.3263L1.14853 47.8516Z" fill="white" stroke="white" stroke-width="2.28801" stroke-linejoin="round"/>
<path d="M21.4848 20.3405L27.4665 14.3587C30.6568 11.1685 31.0556 8.377 28.6629 5.98431M28.6629 27.5185L34.6446 21.5368C38.6324 17.549 42.6202 17.549 46.6081 21.5368" stroke="white" stroke-width="2.28801" stroke-linecap="round" stroke-linejoin="round"/>
<path d="M17.8973 5.98173C18.5319 5.98173 19.1405 5.72964 19.5892 5.28092C20.038 4.83221 20.29 4.22362 20.29 3.58904C20.29 2.95446 20.038 2.34586 19.5892 1.89715C19.1405 1.44843 18.5319 1.19635 17.8973 1.19635C17.2628 1.19635 16.6542 1.44843 16.2055 1.89715C15.7567 2.34586 15.5047 2.95446 15.5047 3.58904C15.5047 4.22362 15.7567 4.83221 16.2055 5.28092C16.6542 5.72964 17.2628 5.98173 17.8973 5.98173ZM44.217 4.78538C44.8515 4.78538 45.4601 4.5333 45.9088 4.08458C46.3576 3.63586 46.6096 3.02727 46.6096 2.39269C46.6096 1.75811 46.3576 1.14952 45.9088 0.700803C45.4601 0.252086 44.8515 0 44.217 0C43.5824 0 42.9738 0.252086 42.5251 0.700803C42.0763 1.14952 41.8243 1.75811 41.8243 2.39269C41.8243 3.02727 42.0763 3.63586 42.5251 4.08458C42.9738 4.5333 43.5824 4.78538 44.217 4.78538ZM44.217 32.3013C44.8515 32.3013 45.4601 32.0492 45.9088 31.6005C46.3576 31.1518 46.6096 30.5432 46.6096 29.9086C46.6096 29.2741 46.3576 28.6655 45.9088 28.2168C45.4601 27.768 44.8515 27.5159 44.217 27.5159C43.5824 27.5159 42.9738 27.768 42.5251 28.2168C42.0763 28.6655 41.8243 29.2741 41.8243 29.9086C41.8243 30.5432 42.0763 31.1518 42.5251 31.6005C42.9738 32.0492 43.5824 32.3013 44.217 32.3013ZM40.6279 43.0684C41.2625 43.0684 41.8711 42.8164 42.3198 42.3676C42.7685 41.9189 43.0206 41.3103 43.0206 40.6758C43.0206 40.0412 42.7685 39.4326 42.3198 38.9839C41.8711 38.5351 41.2625 38.2831 40.6279 38.2831C39.9933 38.2831 39.3847 38.5351 38.936 38.9839C38.4873 39.4326 38.2352 40.0412 38.2352 40.6758C38.2352 41.3103 38.4873 41.9189 38.936 42.3676C39.3847 42.8164 39.9933 43.0684 40.6279 43.0684Z" fill="white"/>
</svg>
